<svg width="47" height="46" viewBox="0 0 47 46" fill="none" xmlns="http://www.w3.org/2000/svg">
<path d="M12.93 21.29C9.62998 23.48 5.42998 23.54 1.60498 24.665C1.88703 28.5267 3.18034 32.2463 5.35498 35.45C18.7725 29.4125 24.15 8.99748 38.1 6.01248C35.8558 4.11076 33.2552 2.6753 30.45 1.78998C28.4329 2.25925 26.5288 3.12338 24.8475 4.33248C19.2825 8.57748 18.75 17.42 12.93 21.29Z" fill="#F27121" stroke="#88182D" stroke-width="1.5" stroke-linecap="round" stroke-linejoin="round"/>
<path d="M25.6652 31.34C23.8427 34.7525 22.6652 38.6525 19.8227 41.27C18.6614 42.2787 17.373 43.131 15.9902 43.805C20.1423 45.3746 24.6751 45.6364 28.9802 44.555C29.3477 43.88 29.7302 43.205 29.9927 42.5075C31.4477 39.0575 32.1452 35.27 34.1627 32.12C36.8552 27.9125 41.1677 25.7225 45.9302 24.005C45.9302 23.66 45.9827 23.315 45.9827 22.97C45.9776 20.9222 45.6873 18.8852 45.1202 16.9175C43.9652 17.3825 42.7127 17.735 41.5502 18.11C34.7489 20.3095 29.0586 25.0487 25.6652 31.34Z" fill="#F27121" stroke="#88182D" stroke-width="1.5" stroke-linecap="round" stroke-linejoin="round"/>
<path d="M5.33984 35.45C7.93757 39.272 11.6594 42.1917 15.9899 43.805C17.3726 43.131 18.661 42.2787 19.8223 41.27C22.6573 38.6525 23.8423 34.7525 25.6648 31.34C29.0627 25.0572 34.7524 20.3265 41.5498 18.1325C42.7123 17.7575 43.9649 17.3825 45.1199 16.94C43.9191 12.6765 41.4688 8.87044 38.0848 6.01248C24.1348 8.99748 18.7498 29.4125 5.33984 35.45Z" fill="#F9AD74" stroke="#88182D" stroke-width="1.5" stroke-miterlimit="10"/>
<path d="M1.5 23C1.5 23.5625 1.545 24.1175 1.59 24.6725C5.4 23.54 9.615 23.4875 12.915 21.2975C18.735 17.4275 19.2675 8.58497 24.8175 4.33997C26.4988 3.13087 28.4029 2.26675 30.42 1.79747C27.0895 0.748134 23.5587 0.497872 20.1134 1.06695C16.6682 1.63603 13.4054 3.00846 10.5893 5.0731C7.77311 7.13775 5.48277 9.83657 3.90367 12.951C2.32458 16.0655 1.50113 19.5081 1.5 23Z" fill="#F9AD74" stroke="#88182D" stroke-width="1.5" stroke-miterlimit="10"/>
<path d="M34.1625 32.1425C32.145 35.2925 31.4475 39.08 29.9925 42.53C29.6925 43.2275 29.3475 43.9025 28.98 44.5775C33.6469 43.4445 37.821 40.8298 40.8768 37.1249C43.9326 33.4201 45.7056 28.8247 45.93 24.0275C41.1675 25.745 36.855 27.935 34.1625 32.1425Z" fill="#F9AD74" stroke="#88182D" stroke-width="1.5" stroke-miterlimit="10"/>
</svg>
