<svg width="88" height="95" viewBox="0 0 88 95" fill="none" xmlns="http://www.w3.org/2000/svg">
<path d="M60.8072 33.0176C56.6447 38.3051 53.2097 44.2676 48.0572 48.5126C42.7397 52.9076 36.0572 55.1501 29.7422 57.9776C34.9738 62.365 38.7805 68.2109 40.6772 74.7701C47.4272 59.3576 60.1022 46.3601 75.8447 40.5626C73.6749 40.0679 71.5482 39.4008 69.4847 38.5676C66.3184 37.1852 63.39 35.3122 60.8072 33.0176Z" fill="#E08391" stroke="#EC1B30" stroke-width="1.5" stroke-linecap="round" stroke-linejoin="round"/>
<path d="M50.6603 28.0601C51.7618 26.1205 52.6784 24.0815 53.3978 21.9701C50.9078 15.8726 49.5578 9.22012 47.1278 3.16762C43.4528 -6.01988 40.1302 14.9501 39.4777 17.0576C37.8652 22.3076 35.4952 27.4226 31.7902 31.5251C30.9577 32.4577 30.0551 33.3252 29.0903 34.1201C22.1303 39.8576 12.7178 41.1401 4.34025 43.5551C0.417755 44.6801 0.0727479 47.0651 4.14525 49.2551C8.99775 51.8726 15.4777 51.6176 21.0202 53.2001C24.3127 50.6276 27.5303 47.9501 30.8828 45.4826C38.0003 40.2326 46.1453 35.6876 50.6603 28.0601Z" fill="#E08391" stroke="#EC1B30" stroke-width="1.5" stroke-linecap="round" stroke-linejoin="round"/>
<path d="M40.6553 74.77C41.4826 77.4913 42.0058 80.2959 42.2152 83.1325C42.3727 85.435 41.6377 93.5425 44.9377 93.3025C48.3952 93.055 48.6052 85.645 49.0402 83.2675C49.9702 78.1075 51.0052 72.9475 53.0677 68.1025C55.6252 62.1025 59.6677 56.53 65.2702 53.1775C69.7252 50.5 74.9527 49.315 80.0752 48.775C82.4827 48.52 88.6102 48.7375 85.3252 44.5C84.2452 43.09 81.2977 42.34 79.7227 41.7475C78.4552 41.275 77.1278 40.915 75.8003 40.5625C60.0803 46.36 47.4278 59.3575 40.6553 74.77Z" fill="#F8BFC6" stroke="#EC1B30" stroke-width="1.5" stroke-linecap="round" stroke-linejoin="round"/>
<path d="M60.8077 33.0172C59.111 31.5515 57.6312 29.852 56.4128 27.9697C55.2381 26.0619 54.2342 24.0541 53.4128 21.9697C52.6933 24.0811 51.7768 26.1201 50.6752 28.0597C46.1752 35.6872 38.0152 40.2322 30.8752 45.4822C27.5227 47.9422 24.3052 50.6272 21.0127 53.1997C21.8821 53.4386 22.7341 53.7368 23.5627 54.0922C25.7908 55.112 27.8718 56.4263 29.7502 57.9997C36.0877 55.1722 42.7477 52.9297 48.0652 48.5347C53.2102 44.2372 56.6452 38.3047 60.8077 33.0172Z" fill="#F8BFC6" stroke="#EC1B30" stroke-width="1.5" stroke-linecap="round" stroke-linejoin="round"/>
</svg>
