<svg width="72" height="82" viewBox="0 0 72 82" fill="none" xmlns="http://www.w3.org/2000/svg">
<path d="M6.87988 43.9397C7.17238 44.0297 7.46492 44.1122 7.75742 44.1797C10.7574 44.8322 13.9749 44.6597 16.8024 45.8672C19.6299 47.0747 21.7299 49.5797 23.0724 52.4672C26.0724 41.6747 36.5724 34.8347 46.8099 30.1922C48.7974 29.2847 50.8224 28.4147 52.8099 27.5372C51.3443 27.0838 49.9955 26.316 48.8575 25.2872C46.525 23.1272 45.6999 20.0372 45.2724 16.8047C41.1699 18.8747 37.0224 20.8172 32.9949 22.8047C23.0724 27.6572 12.7149 34.9247 6.87988 43.9397Z" fill="#FCEE5F" stroke="#E55D33" stroke-width="1.5" stroke-linecap="round" stroke-linejoin="round"/>
<path d="M23.0801 52.4523C23.8597 54.1478 24.4242 55.9342 24.7602 57.7698C25.6827 62.6598 25.5101 67.7298 26.7101 72.5523C27.8951 77.2023 32.1326 82.1973 36.6251 80.5248C39.9101 79.2948 41.0426 75.2748 41.5076 71.7948C42.1301 67.0923 42.3776 62.3073 43.7576 57.7773C45.1376 53.2473 47.9352 48.8823 52.2327 46.8723C55.6452 45.2748 59.5901 45.3348 63.2426 44.3898C66.8951 43.4448 70.6826 40.7898 70.7426 37.0173C70.8176 32.5698 65.8301 29.8323 61.4426 29.0748C58.6001 28.5798 55.5326 28.3923 52.8326 27.5073C50.8151 28.3848 48.7901 29.2548 46.8326 30.1623C36.6176 34.8198 26.1176 41.6598 23.0801 52.4523Z" fill="#F9AD74" stroke="#E55D33" stroke-width="1.5" stroke-miterlimit="10"/>
<path d="M27.9102 10.9025C26.9352 15.6575 27.0852 20.9 24.2802 24.86C21.7152 28.475 17.2077 30.185 12.8352 30.9275C10.3452 31.3475 7.75766 31.5425 5.47016 32.6075C3.18266 33.6725 1.19518 35.915 1.36018 38.435C1.54768 41.2099 4.15767 43.115 6.88017 43.94C12.7152 34.94 23.0727 27.6575 33.0327 22.79C37.0377 20.8325 41.2077 18.89 45.3102 16.79C45.0852 15.095 44.9652 13.3625 44.8152 11.6975C43.5777 -1.83254 30.6477 -2.42504 27.9102 10.9025Z" fill="#F9AD74" stroke="#E55D33" stroke-width="1.5" stroke-miterlimit="10"/>
</svg>
