<svg width="40" height="40" viewBox="0 0 40 40" fill="none" xmlns="http://www.w3.org/2000/svg">
<path d="M11.7974 36.7175C15.2805 38.3193 19.1717 38.8123 22.9443 38.1294C26.7168 37.4466 30.1884 35.6211 32.8891 32.8999C35.5898 30.1788 37.3891 26.6935 38.0434 22.9159C38.6977 19.1383 38.1755 15.2509 36.5474 11.78L24.5098 22.5125C19.7398 26.75 14.8574 31.1825 11.7974 36.7175Z" fill="#F8BFC6" stroke="#634A9D" stroke-width="1.5" stroke-linecap="round" stroke-linejoin="round"/>
<path d="M25.3873 8.165C26.7374 6.72657 27.9596 5.17319 29.0398 3.52249C25.4289 1.36195 21.1948 0.482623 17.0221 1.0267C12.8495 1.57078 8.98245 3.50646 6.04628 6.5207C3.11011 9.53493 1.27655 13.4515 0.842124 17.6369C0.407698 21.8224 1.39781 26.032 3.65234 29.585L3.80983 29.465C11.7898 23.2325 18.6073 15.68 25.3873 8.165Z" fill="#F8BFC6" stroke="#634A9D" stroke-width="1.5" stroke-linecap="round" stroke-linejoin="round"/>
<path d="M29.0398 3.5C27.9596 5.1507 26.7374 6.70408 25.3874 8.1425C18.6374 15.6425 11.7898 23.21 3.80984 29.4425L3.65234 29.5625C5.61069 32.686 8.44275 35.166 11.7974 36.695C14.8574 31.16 19.7399 26.735 24.5024 22.49L36.5398 11.75C34.9311 8.30524 32.3162 5.42885 29.0398 3.5Z" fill="#E08391" stroke="#634A9D" stroke-width="1.5" stroke-linecap="round" stroke-linejoin="round"/>
</svg>
