<svg width="61" height="73" viewBox="0 0 61 73" fill="none" xmlns="http://www.w3.org/2000/svg">
<path d="M22.3072 55C25.5697 53.5 29.2822 52.8625 32.1997 50.755C39.1072 45.775 38.4172 35.2075 43.0222 28.045C43.7903 26.8811 44.6804 25.8025 45.6772 24.8275C42.3927 21.5044 39.8382 17.5322 38.1772 13.165C35.6947 19.915 33.1822 26.95 27.4822 31.165C21.0397 35.95 11.9647 36.055 4.53223 38.7325C6.36223 39.8425 8.49223 40.3675 10.4422 41.2525C15.9997 43.75 19.9447 49.2475 22.3072 55Z" fill="#FCEE5F" stroke="#F27121" stroke-width="1.5" stroke-linecap="round" stroke-linejoin="round"/>
<path d="M43.0002 28.0375C38.3952 35.2 39.0852 45.7675 32.1777 50.7475C29.2602 52.855 25.5477 53.4625 22.2852 54.9925C22.9427 56.5666 23.4865 58.1857 23.9126 59.8375C24.7376 63.0775 24.1676 66.5875 26.1626 69.5875C26.8592 70.6951 27.9201 71.5252 29.1626 71.935C31.9376 72.775 33.8577 70.8775 34.8702 68.785C37.2402 63.9325 35.7551 58.165 37.9751 53.275C41.2601 46.03 48.7902 43.4725 55.5477 40.57C57.0477 39.925 58.6902 39.13 59.2452 37.57C59.8002 36.01 59.0501 34.375 57.9026 33.28C56.6767 32.2693 55.313 31.4385 53.8527 30.8125C50.8297 29.2539 48.0709 27.2291 45.6777 24.8125C44.6725 25.7888 43.7749 26.8699 43.0002 28.0375Z" fill="#F7BC16" stroke="#F27121" stroke-width="1.5" stroke-miterlimit="10"/>
<path d="M38.1626 13.1575C37.6634 11.8687 37.25 10.5483 36.9251 9.20499C36.4076 7.02249 36.0926 4.70498 34.4801 2.98748C34.1116 2.57195 33.6605 2.23791 33.1555 2.00674C32.6506 1.77556 32.1029 1.65235 31.5476 1.64499C28.7426 1.64499 27.5576 4.64498 26.9951 7.40498C26.9276 7.72748 26.8676 8.04249 26.8226 8.34999C26.0726 12.8125 24.8726 17.7325 22.1426 21.55C18.4676 26.7025 12.5126 27.955 6.52007 29.125C5.35049 29.3282 4.24252 29.795 3.28009 30.49C-0.357411 33.265 1.73509 37.105 4.48009 38.74H4.51758C11.9501 36.0625 21.0176 35.9575 27.4676 31.1725C33.1676 26.9425 35.6801 19.945 38.1626 13.1575Z" fill="#F7BC16" stroke="#F27121" stroke-width="1.5" stroke-miterlimit="10"/>
</svg>
