<svg width="78" height="85" viewBox="0 0 78 85" fill="none" xmlns="http://www.w3.org/2000/svg">
<path d="M54.2674 30.215C50.5774 34.9025 47.5174 40.16 42.9424 43.9475C38.2324 47.8475 32.3299 49.8275 26.7124 52.34C31.3547 56.2345 34.7287 61.4262 36.4024 67.25C42.4024 53.5925 53.6524 42.0725 67.5799 36.935C65.6567 36.4926 63.771 35.9008 61.9399 35.165C59.1381 33.9285 56.5489 32.258 54.2674 30.215Z" fill="#E08391" stroke="#EC1B30" stroke-width="1.5" stroke-linecap="round" stroke-linejoin="round"/>
<path d="M45.2673 25.8275C46.2484 24.1094 47.0621 22.3011 47.6973 20.4275C45.4923 15.02 44.2998 9.17748 42.1398 3.75498C38.8848 -4.38252 35.9373 14.2025 35.3898 16.07C33.9273 20.75 31.8348 25.25 28.5498 28.895C27.8077 29.7206 27.0055 30.4902 26.1498 31.1975C19.9848 36.2825 11.6448 37.415 4.19732 39.5525C0.717317 40.5575 0.447332 42.665 4.02483 44.6075C8.32233 46.925 14.0673 46.7 18.9798 48.1025C21.8973 45.8525 24.7473 43.445 27.7248 41.2625C34.0548 36.6125 41.2698 32.585 45.2673 25.8275Z" fill="#E08391" stroke="#EC1B30" stroke-width="1.5" stroke-linecap="round" stroke-linejoin="round"/>
<path d="M36.4023 67.25C37.1394 69.6602 37.6024 72.146 37.7824 74.66C37.9249 76.7075 37.2798 83.8925 40.1973 83.66C43.2648 83.435 43.4524 76.8725 43.8349 74.765C44.6599 70.19 45.5823 65.615 47.4048 61.3175C49.6548 55.9925 53.2549 51.065 58.2199 48.0875C62.1724 45.7175 66.8074 44.6675 71.3449 44.1875C73.4824 43.9625 78.9049 44.1875 76.0249 40.4C75.0574 39.1475 72.4474 38.4875 71.0524 37.9625C69.9134 37.5539 68.7544 37.2034 67.5798 36.9125C53.6223 42.0425 42.4023 53.5625 36.4023 67.25Z" fill="#F8BFC6" stroke="#EC1B30" stroke-width="1.5" stroke-linecap="round" stroke-linejoin="round"/>
<path d="M54.2675 30.215C52.7615 28.9088 51.4507 27.3933 50.375 25.715C49.3285 24.0269 48.4325 22.2501 47.6975 20.405C47.0622 22.2786 46.2485 24.0869 45.2675 25.805C41.27 32.555 34.0175 36.59 27.725 41.24C24.725 43.4225 21.8975 45.8075 18.98 48.08C19.7479 48.2912 20.4998 48.5569 21.23 48.875C23.2015 49.7709 25.0432 50.9289 26.705 52.3175C32.3225 49.805 38.225 47.8175 42.935 43.925C47.5325 40.16 50.5775 34.9025 54.2675 30.215Z" fill="#F8BFC6" stroke="#EC1B30" stroke-width="1.5" stroke-linecap="round" stroke-linejoin="round"/>
</svg>
