<svg width="39" height="45" viewBox="0 0 39 45" fill="none" xmlns="http://www.w3.org/2000/svg">
<path d="M22.7947 25.8425C20.0947 26.9825 17.0272 26.9825 14.3197 28.0925C13.7175 28.3461 13.14 28.6549 12.5947 29.015C12.9592 29.8522 13.2283 30.7277 13.3972 31.625C13.8922 34.25 13.7797 36.98 14.4397 39.5675C15.0997 42.155 17.3497 44.7425 19.7647 43.8425C21.5347 43.19 22.1347 41.03 22.3897 39.155C22.7197 36.635 22.8547 34.0625 23.6122 31.655C24.3697 29.2475 25.8622 26.8775 28.1572 25.7975C29.9947 24.935 32.1097 24.9725 34.0747 24.4625C36.0397 23.9525 38.0722 22.5275 38.1022 20.5025C38.1022 18.2075 35.6797 16.7525 33.3997 16.3025C29.9122 19.46 27.1597 23.99 22.7947 25.8425Z" fill="#F7BC16" stroke="#E55D33" stroke-width="1.5" stroke-linecap="round" stroke-linejoin="round"/>
<path d="M25.5624 13.1975C24.4449 11.435 24.3624 9.05751 24.1674 6.89751C23.4999 -0.384995 16.5624 -0.707492 15.0924 6.45501C14.5674 9.00501 14.6424 11.825 13.1424 13.955C11.7624 15.8975 9.33988 16.82 6.99238 17.2175C5.64078 17.3408 4.31159 17.6434 3.03987 18.1175C1.80987 18.695 0.74491 19.895 0.83491 21.2525C0.93991 22.9025 2.64988 23.9825 4.26988 24.335C5.88988 24.6875 7.6074 24.59 9.1224 25.2425C9.34421 25.3394 9.55744 25.4548 9.75988 25.5875C14.2599 22.6325 19.2474 20.2775 23.0349 16.4525C24.0019 15.4702 24.8502 14.3777 25.5624 13.1975Z" fill="#F7BC16" stroke="#E55D33" stroke-width="1.5" stroke-linecap="round" stroke-linejoin="round"/>
<path d="M26.3573 14.1875C26.0509 13.8929 25.7837 13.5602 25.5623 13.1975C24.8496 14.375 24.0013 15.465 23.0348 16.445C19.2848 20.27 14.2673 22.625 9.75977 25.58C11.0442 26.3997 12.0366 27.6047 12.5948 29.0225C13.1401 28.6623 13.7175 28.3535 14.3198 28.1C17.0273 26.9825 20.0948 26.9825 22.7948 25.85C27.1598 23.9975 29.9123 19.4675 33.3998 16.295L33.1073 16.2275C30.7523 15.815 28.1123 15.815 26.3573 14.1875Z" fill="#FCEE5F" stroke="#E55D33" stroke-width="1.5" stroke-linecap="round" stroke-linejoin="round"/>
</svg>
