<svg width="61" height="60" viewBox="0 0 61 60" fill="none" xmlns="http://www.w3.org/2000/svg">
<path d="M34.01 25.5925C35.6975 21.535 35.69 17.0125 36.0275 12.6325C36.286 8.99061 36.9476 5.38861 38 1.89251C32.6285 0.387187 26.9346 0.48063 21.6154 2.16141C16.2961 3.84218 11.5823 7.03737 8.051 11.3558C4.51967 15.6743 2.32402 20.9286 1.73285 26.4757C1.14168 32.0227 2.18063 37.6218 4.7225 42.5875C15.875 38.68 29.0675 37.4725 34.01 25.5925Z" fill="#F7BC16" stroke="#88182D" stroke-width="1.5" stroke-miterlimit="10"/>
<path d="M59.4123 29.71C59.397 24.4095 57.912 19.217 55.1223 14.71C50.2173 18.0925 45.5598 21.7525 43.5873 26.905C42.1473 30.655 42.3273 34.87 40.7898 38.575C37.0398 47.6875 25.1298 50.0725 16.1748 54.6775C20.5179 57.2346 25.4599 58.5982 30.4998 58.63C38.1685 58.628 45.5225 55.5802 50.9445 50.1569C56.3664 44.7335 59.4123 37.3788 59.4123 29.71Z" fill="#F7BC16" stroke="#88182D" stroke-width="1.5" stroke-miterlimit="10"/>
<path d="M40.7901 38.5975C42.2901 34.8925 42.1477 30.67 43.5877 26.9275C45.5602 21.775 50.2177 18.115 55.1227 14.7325C51.2741 8.41406 45.1437 3.81699 38.0002 1.89249C36.9503 5.38887 36.2913 8.99087 36.0352 12.6325C35.6977 17.0125 35.7052 21.535 34.0177 25.5925C29.0752 37.4725 15.8827 38.68 4.72266 42.5875C7.26711 47.6626 11.2505 51.8755 16.1752 54.7C25.1302 50.095 37.0101 47.71 40.7901 38.5975Z" fill="#FCEE5F" stroke="#88182D" stroke-width="1.5" stroke-linecap="round" stroke-linejoin="round"/>
</svg>
