<svg width="63" height="64" viewBox="0 0 63 64" fill="none" xmlns="http://www.w3.org/2000/svg">
<path d="M57.1276 29.5C49.9726 34.7125 39.4801 33.25 32.3776 38.545C25.6276 43.54 24.0525 52.885 19.29 59.7625C24.4594 62.0851 30.1757 62.9148 35.7921 62.1578C41.4085 61.4008 46.7009 59.0872 51.0709 55.4789C55.4409 51.8705 58.7139 47.1113 60.5199 41.7396C62.3259 36.3679 62.5926 30.5979 61.29 25.0825C60.1771 26.7914 58.7674 28.2875 57.1276 29.5Z" fill="#29C0DC" stroke="#334EA1" stroke-width="1.5" stroke-linecap="round" stroke-linejoin="round"/>
<path d="M18.3897 39.82C18.8097 36.9175 17.9021 33.895 18.6221 31.0525C20.7221 22.75 33.4946 22.8625 38.4371 15.8575C41.1221 12.055 40.7996 7.07501 39.2396 2.55251C33.1469 0.96506 26.7115 1.3101 20.8235 3.53991C14.9355 5.76972 9.88594 9.7741 6.37318 14.9992C2.86043 20.2242 1.05809 26.4117 1.21556 32.7059C1.37303 39 3.48254 45.0896 7.25218 50.1325C12.7497 48.4375 17.6097 45.25 18.3897 39.82Z" fill="#29C0DC" stroke="#334EA1" stroke-width="1.5" stroke-linecap="round" stroke-linejoin="round"/>
<path d="M39.2399 2.55249C40.7999 7.05249 41.1224 12.055 38.4374 15.8575C33.4949 22.8625 20.7224 22.75 18.6224 31.0525C17.8724 33.895 18.8099 36.9175 18.3899 39.82C17.6399 45.265 12.7724 48.4375 7.25244 50.1325C10.3598 54.3246 14.4918 57.6483 19.2524 59.785C24.0149 52.9075 25.6124 43.5625 32.3399 38.5675C39.4499 33.3175 49.9424 34.735 57.0899 29.5225C58.719 28.3073 60.1184 26.8114 61.2224 25.105C59.9618 19.6993 57.2476 14.741 53.3732 10.7661C49.4988 6.79121 44.6115 3.951 39.2399 2.55249Z" fill="#A4DCE9" stroke="#334EA1" stroke-width="1.5" stroke-miterlimit="10"/>
</svg>
