<svg width="87" height="87" viewBox="0 0 87 87" fill="none" xmlns="http://www.w3.org/2000/svg">
<path d="M25.9727 81.75C33.7688 85.3366 42.4789 86.4403 50.9232 84.9115C59.3676 83.3827 67.138 79.2954 73.1819 73.2032C79.2258 67.111 83.2511 59.3084 84.7126 50.8522C86.1741 42.3959 85.0012 33.6948 81.3526 25.9275L54.4052 49.9275C43.7477 59.43 32.8127 69.3225 25.9727 81.75Z" fill="#F8BFC6" stroke="#634A9D" stroke-width="1.5" stroke-linecap="round" stroke-linejoin="round"/>
<path d="M64.5598 7.40997C62.1465 11.1048 59.4135 14.5807 56.3922 17.7975C41.2197 34.62 25.9423 51.5475 8.09232 65.475L7.73975 65.7525C12.1151 72.7591 18.4562 78.3229 25.9723 81.75C32.8123 69.36 43.7473 59.4675 54.4048 49.9575L81.3523 25.9575C77.769 18.2126 71.9115 11.7429 64.5598 7.40997Z" fill="#E08391" stroke="#634A9D" stroke-width="1.5" stroke-linecap="round" stroke-linejoin="round"/>
<path d="M1.88281 50.64C2.84657 56.0069 4.83527 61.1379 7.74026 65.7525L8.09283 65.475C25.9428 51.5325 41.2203 34.62 56.3928 17.7975C59.414 14.5807 62.147 11.1048 64.5603 7.40997C62.5781 6.25208 60.5095 5.24909 58.3728 4.40997C42.4878 19.1325 26.3103 33.555 8.6178 46.0125C6.3903 47.565 4.14031 49.1025 1.88281 50.64Z" fill="#F8BFC6" stroke="#634A9D" stroke-width="1.5" stroke-linecap="round" stroke-linejoin="round"/>
<path d="M42.8025 2.40001L43.5525 1.44751H43.2375C32.6153 1.44993 22.3876 5.47285 14.6101 12.7077C6.8326 19.9426 2.08179 29.8531 1.3125 40.4475C16.6425 29.475 30.7875 16.875 42.8025 2.40001Z" fill="#F8BFC6" stroke="#634A9D" stroke-width="1.5" stroke-linecap="round" stroke-linejoin="round"/>
<path d="M42.8024 2.39999C30.8024 16.875 16.6425 29.475 1.35001 40.455C1.28251 41.4525 1.22998 42.465 1.22998 43.455C1.23672 45.857 1.45506 48.2538 1.88248 50.6175C4.13248 49.1175 6.38248 47.5425 8.63248 45.9675C26.325 33.51 42.5024 19.0875 58.3875 4.36499C53.6871 2.46952 48.6729 1.47228 43.605 1.42499L42.8024 2.39999Z" fill="#E08391" stroke="#634A9D" stroke-width="1.5" stroke-linecap="round" stroke-linejoin="round"/>
</svg>
