<svg width="46" height="46" viewBox="0 0 46 46" fill="none" xmlns="http://www.w3.org/2000/svg">
<path d="M21.7106 32.57C19.1231 35.9225 16.6256 39.53 13.8281 42.755C17.1452 44.2236 20.777 44.8392 24.3928 44.5457C28.0085 44.2523 31.4935 43.059 34.5304 41.0747C37.5673 39.0904 40.0595 36.378 41.7804 33.1845C43.5012 29.9909 44.396 26.4177 44.3831 22.79C44.3697 18.8994 43.3046 15.0848 41.3006 11.75C34.3706 18.35 27.5006 25.0025 21.7106 32.57Z" fill="#FFE200" stroke="#88182D" stroke-width="1.5" stroke-linecap="round" stroke-linejoin="round"/>
<path d="M27.5973 1.60999C24.3945 0.814607 21.0522 0.762585 17.8262 1.45795C14.6002 2.15331 11.5762 3.57761 8.98549 5.62179C6.3948 7.66597 4.3062 10.2758 2.87957 13.2516C1.45294 16.2273 0.726089 19.4901 0.75472 22.79C0.75472 23.4275 0.88972 24.035 0.94222 24.6575C10.8572 18.0275 20.5023 10.85 27.5973 1.60999Z" fill="#FFE200" stroke="#88182D" stroke-width="1.5" stroke-linecap="round" stroke-linejoin="round"/>
<path d="M27.5974 1.60999C20.5024 10.85 10.8574 18.0275 0.942383 24.6575C1.26537 28.5536 2.63255 32.2907 4.90002 35.4754C7.1675 38.6602 10.2515 41.1749 13.8274 42.755C16.6249 39.53 19.1224 35.9225 21.7099 32.57C27.5299 25.0025 34.3699 18.32 41.2999 11.7725C39.8187 9.24251 37.8413 7.0381 35.4866 5.29171C33.1319 3.54532 30.4484 2.293 27.5974 1.60999Z" fill="#F7BC16" stroke="#88182D" stroke-width="1.5" stroke-miterlimit="10"/>
</svg>
