<svg width="1440" height="450" viewBox="0 0 1440 450" fill="none" xmlns="http://www.w3.org/2000/svg">
<g clip-path="url(#clip0_75_3608)">
<mask id="mask0_75_3608" style="mask-type:luminance" maskUnits="userSpaceOnUse" x="0" y="0" width="1440" height="450">
<path d="M1440 0H0V450H1440V0Z" fill="white"/>
</mask>
<g mask="url(#mask0_75_3608)">
<path d="M1440 -81H0V531H1440V-81Z" fill="#2E91CF"/>
<path d="M485.468 254.52C489.368 256.537 493.605 258.27 497.992 258.09C502.38 257.91 506.925 255.443 508.328 251.28C518.392 257.565 532.612 254.34 540.9 246.397C551.265 249.188 564.578 249.465 571.328 239.378C571.23 239.52 580.762 241.335 581.715 241.365C586.17 241.53 591.255 241.117 595.215 238.432C599.625 235.432 601.898 230.145 607.005 227.932C614.048 224.85 621.255 227.573 626.085 220.335C629.085 215.835 630.825 208.53 636.907 207.195C639.255 206.678 641.7 207.315 644.108 207.195C646.807 207.005 649.363 205.908 651.36 204.082C653.357 202.256 654.679 199.809 655.11 197.138C660.795 203.138 672.113 201.862 676.373 194.805C680.873 201.345 692.43 200.737 696.218 193.77C697.32 200.52 703.935 205.973 710.797 205.77C717.66 205.567 723.893 199.665 724.53 192.825C728.685 196.77 735.675 194.235 739.927 190.395C744.18 186.555 747.75 181.432 753.255 179.895C761.64 177.51 770.152 184.53 778.815 183.585C786.547 182.737 793.47 175.658 800.978 177.69C813.615 181.102 814.395 198.69 827.805 201.18C832.425 202.05 837.555 200.617 840.645 197.062C843.877 202.425 850.747 204.562 857.002 204.337C860.242 204.217 863.557 203.542 866.205 201.675C868.852 199.807 870.705 196.568 870.218 193.365C876.083 199.035 886.718 198.615 892.103 192.51C895.328 188.865 896.82 183.667 900.84 180.93C903.728 178.965 907.387 178.68 910.86 178.275C914.333 177.87 918.022 177.315 920.61 174.99C923.662 172.253 921.128 168.66 922.71 166.462C923.73 165.052 929.28 164.962 931.043 164.28C934.853 162.847 942.907 158.467 939.367 153.277C942.022 157.162 952.425 159.945 954.585 159.938C954.96 159.938 955.335 159.938 955.703 159.938V160.013C960.316 160.007 964.798 158.477 968.453 155.662C968.654 156.641 969.043 157.571 969.6 158.4C971.49 162.9 976.785 166.133 981.6 164.805C979.695 165.33 981.532 173.22 981.96 174.345C983.324 177.894 985.838 180.883 989.1 182.835C992.235 184.77 993.743 184.26 994.808 187.905C996.03 192.12 994.11 195.6 997.71 199.402C999.318 201.014 1001.36 202.117 1003.59 202.575C1005.82 203.032 1008.14 202.824 1010.25 201.975C1009.76 204.615 1010.06 207.343 1011.13 209.808C1012.2 212.273 1013.97 214.364 1016.24 215.814C1018.5 217.263 1021.14 218.005 1023.82 217.945C1026.51 217.885 1029.12 217.025 1031.31 215.475C1029.23 223.395 1035.31 232.432 1043.44 233.475C1050.05 234.322 1056.76 230.573 1063.25 232.065C1067 232.928 1070.18 235.455 1073.2 237.892C1076.23 240.33 1079.43 242.812 1083.23 243.562C1087.04 244.312 1091.12 242.812 1092.89 239.348C1093.51 249.383 1110.23 251.1 1115.11 243.353C1117.65 248.767 1121.91 254.392 1127.86 254.603C1133.07 254.805 1137.37 250.853 1141.2 247.32C1145.03 243.788 1149.84 240.188 1154.92 241.283C1160.01 242.378 1163.4 247.733 1168.52 248.07C1170.5 248.122 1172.43 247.398 1173.9 246.051C1175.36 244.705 1176.25 242.841 1176.36 240.855C1177.22 245.355 1181.91 248.633 1186.51 248.467C1191.1 248.303 1195.31 245.145 1197.38 241.027C1197.01 243.005 1197.26 245.048 1198.09 246.881C1198.92 248.714 1200.29 250.25 1202.01 251.282C1203.74 252.313 1205.74 252.791 1207.75 252.652C1209.75 252.512 1211.67 251.761 1213.24 250.5C1206.43 255.96 1221.14 271.973 1227.41 264.217C1228.84 268.935 1233.41 272.28 1238.23 273.217C1240.53 273.645 1242.88 273.66 1245.19 273.263C1247.82 272.156 1250.32 270.733 1252.61 269.025C1258.21 264.88 1262.49 259.201 1264.92 252.675C1273.46 270.39 1300.12 263.453 1298.41 251.115C1309 262.073 1325.98 257.617 1331.75 245.865C1341.02 251.693 1354.89 248.003 1360.04 238.365C1366.37 243.96 1376.75 244.267 1383.4 239.04C1385.95 237.03 1387.9 234.375 1390.4 232.29C1396.76 226.89 1405.4 229.027 1412.05 224.955C1418.86 220.77 1419.41 208.913 1427.22 207.195C1429.57 206.678 1432.02 207.315 1434.43 207.195C1437.13 207.005 1439.68 205.908 1441.68 204.082C1443.68 202.256 1445 199.809 1445.43 197.138C1451.11 203.138 1462.42 201.862 1466.69 194.805C1471.19 201.345 1482.75 200.737 1486.53 193.77C1487.64 200.52 1494.25 205.973 1501.12 205.77C1507.98 205.567 1514.21 199.665 1514.85 192.825C1519.01 196.77 1526 194.235 1530.25 190.395C1534.5 186.555 1538.07 181.432 1543.58 179.895C1551.96 177.51 1560.47 184.53 1569.14 183.585C1575.69 182.872 1581.05 177.585 1587.65 177.353C1595.69 177.038 1598.84 186.128 1602.65 191.88C1605.84 196.71 1609.97 201.39 1615.56 202.913C1621.15 204.435 1628.23 201.413 1629.14 195.675C1633.5 201.21 1639.64 205.875 1646.71 206.25C1653.78 206.625 1661.26 201.33 1661.39 194.25C1666.9 196.177 1673.16 199.027 1678.2 195.27C1681.77 192.6 1682.95 187.485 1686.49 184.642C1689.25 182.392 1692.88 181.71 1696.36 181.207C1699.85 180.705 1703.47 180.315 1706.54 178.59C1709.62 176.865 1712.04 173.385 1711.3 169.935C1710.84 168.152 1709.84 166.555 1708.43 165.36C1713.49 166.17 1719.38 165.195 1723.68 162.307C1724.88 161.513 1731.58 155.302 1729.68 153.247C1736.89 161.152 1750.36 162.247 1758.73 155.595C1759.09 157.31 1760.01 158.858 1761.34 159.997V-65.19H1385.37C1365.57 -65.19 1325.75 -57.465 1309.94 -66.825H1298.15C1288.54 -72.51 1285.12 -82.575 1276.53 -88.3575C1266.55 -95.1075 1250.75 -94.5225 1239.28 -94.8C1097.93 -98.2356 956.502 -92.6241 815.865 -78C770.362 -73.2675 724.86 -67.59 679.215 -65.16H595.012C575.22 -65.16 535.388 -57.435 519.578 -66.795C509.97 -72.48 506.55 -82.545 497.962 -88.3275L460.958 -94.77C319.604 -98.2158 178.175 -92.6144 37.5375 -78C-7.96497 -73.2975 -53.475 -67.62 -99.12 -65.19H-183.315C-203.115 -65.19 -242.948 -57.465 -258.758 -66.825C-268.357 -72.51 -271.777 -82.575 -280.372 -88.3575C-290.347 -95.1075 -306.142 -94.5225 -317.61 -94.8C-458.954 -98.2346 -600.373 -92.6231 -741 -78C-800.647 -71.7975 -860.25 -63.9675 -920.25 -63.96C-916.155 -10.62 -913.712 42.81 -912.922 96.33C-912.33 136.402 -916.125 184.177 -899.04 221.835C-890.445 240.788 -869.04 255.69 -849.12 249.697C-844.56 248.325 -839.535 245.985 -835.343 248.197C-831.885 250.05 -830.595 254.198 -828.532 257.557C-822 268.11 -807.533 270.015 -795.135 269.423C-782.738 268.83 -769.26 267.113 -758.812 273.825C-751.447 278.565 -747.075 286.642 -742.553 294.142C-738.03 301.642 -732.51 309.322 -724.245 312.217C-715.98 315.112 -704.745 310.462 -704.107 301.717C-691.178 311.722 -668.655 300.967 -668.303 284.633C-664.485 288.735 -657.345 286.695 -653.378 282.735C-649.41 278.775 -647.055 273.375 -642.878 269.647C-634.335 262.027 -620.625 263.73 -610.86 269.7C-601.095 275.67 -594 285 -585.698 292.897C-576.413 301.747 -565.147 309.06 -552.503 311.19C-539.857 313.32 -525.735 309.458 -517.777 299.4C-509.212 308.4 -492.435 307.253 -485.19 297.15C-466.83 303.682 -444.75 297.9 -431.94 283.223C-430.44 281.497 -428.887 279.555 -426.69 278.97C-423.405 278.092 -420.27 280.47 -417.383 282.277C-405.03 289.897 -387.165 286.688 -378.232 275.242C-377.506 279.861 -375.543 284.196 -372.55 287.788C-369.558 291.38 -365.649 294.094 -361.238 295.642C-356.786 297.07 -352.031 297.265 -347.477 296.209C-342.922 295.153 -338.739 292.884 -335.37 289.642C-331.89 286.2 -329.37 281.753 -325.395 278.91C-321.42 276.068 -316.643 275.22 -312.203 273.45C-307.799 271.671 -303.795 269.029 -300.427 265.68C-299.438 264.705 -291.93 254.985 -292.883 254.49C-288.982 256.515 -284.753 258.24 -280.365 258.068C-275.977 257.895 -271.425 255.42 -270.03 251.258C-259.958 257.543 -245.737 254.318 -237.45 246.375C-227.092 249.165 -213.78 249.443 -207.03 239.355C-207.128 239.497 -197.588 241.312 -196.643 241.342C-192.188 241.508 -187.095 241.095 -183.143 238.41C-178.74 235.41 -176.46 230.122 -171.352 227.91C-164.318 224.828 -157.102 227.55 -152.28 220.312C-149.28 215.812 -147.54 208.508 -141.458 207.173C-139.102 206.655 -136.657 207.293 -134.25 207.173C-131.507 207.007 -128.911 205.875 -126.922 203.978C-124.945 202.181 -123.649 199.757 -123.255 197.115C-117.562 203.115 -106.253 201.84 -101.992 194.783C-97.4925 201.322 -85.9276 200.715 -82.1475 193.747C-81.0375 200.497 -74.43 205.95 -67.5599 205.747C-60.6899 205.545 -54.4725 199.643 -53.835 192.803C-49.68 196.747 -42.6825 194.212 -38.43 190.372C-34.1775 186.533 -30.615 181.41 -25.1025 179.872C-16.725 177.45 -8.25 184.5 0.449951 183.525C8.17499 182.677 15.0975 175.598 22.605 177.63C35.25 181.043 36.03 198.63 49.4325 201.12C54.06 201.99 59.1825 200.557 62.2725 197.003C65.5125 202.365 72.375 204.503 78.6375 204.277C81.87 204.158 85.1925 203.483 87.8325 201.615C90.4725 199.747 92.3325 196.508 91.845 193.305C97.7175 198.975 108.345 198.555 113.738 192.45C116.963 188.805 118.448 183.608 122.468 180.87C125.355 178.905 129.023 178.62 132.495 178.215C135.968 177.81 139.657 177.255 142.245 174.93C145.297 172.193 142.762 168.6 144.345 166.402C145.357 164.992 150.915 164.902 152.67 164.22C156.488 162.788 164.542 158.407 161.003 153.217C163.65 157.102 174.052 159.885 176.22 159.877C176.588 159.877 176.97 159.877 177.33 159.877V159.952C181.942 159.942 186.423 158.413 190.08 155.603C190.278 156.582 190.668 157.512 191.228 158.34C193.11 162.84 198.412 166.073 203.228 164.745C201.315 165.27 203.16 173.16 203.58 174.285C204.959 177.824 207.483 180.8 210.75 182.737C213.892 184.672 215.392 184.163 216.458 187.807C217.688 192.022 215.767 195.503 219.36 199.305C220.961 200.94 223.01 202.066 225.249 202.541C227.488 203.016 229.818 202.819 231.945 201.975C231.454 204.614 231.762 207.34 232.828 209.804C233.894 212.267 235.671 214.357 237.93 215.806C240.19 217.255 242.831 217.998 245.514 217.939C248.198 217.88 250.804 217.022 252.997 215.475C250.912 223.395 257.002 232.432 265.125 233.475C271.74 234.322 278.445 230.573 284.948 232.065C288.698 232.928 291.877 235.455 294.9 237.892C297.922 240.33 301.118 242.812 304.927 243.562C308.738 244.312 312.81 242.812 314.58 239.348C315.195 249.383 331.92 251.1 336.81 243.353C339.345 248.767 343.597 254.392 349.56 254.603C354.757 254.805 359.062 250.853 362.887 247.32C366.713 243.788 371.527 240.188 376.62 241.283C381.713 242.378 385.095 247.733 390.203 248.07C392.191 248.122 394.122 247.398 395.586 246.051C397.051 244.705 397.933 242.841 398.047 240.855C398.91 245.355 403.598 248.633 408.203 248.467C412.807 248.303 417 245.145 419.078 241.027C418.715 243.001 418.964 245.039 419.792 246.867C420.619 248.695 421.985 250.227 423.707 251.257C425.429 252.288 427.425 252.767 429.427 252.632C431.429 252.496 433.342 251.753 434.91 250.5C428.093 255.96 442.807 271.973 449.085 264.217C450.51 268.935 455.085 272.28 459.9 273.217H459.968C463.856 273.888 467.856 273.117 471.218 271.05C472.273 270.425 473.295 269.744 474.277 269.01C479.828 264.915 483.083 261 485.468 254.52Z" fill="#F1EADE" stroke="#A99F93" stroke-width="1.5" stroke-linecap="round" stroke-linejoin="round"/>
</g>
</g>
<defs>
<clipPath id="clip0_75_3608">
<rect width="1440" height="450" fill="white"/>
</clipPath>
</defs>
</svg>
