<?xml version="1.0" encoding="UTF-8"?> <svg xmlns="http://www.w3.org/2000/svg" width="44" height="44" viewBox="0 0 44 44" fill="none"><path d="M35.1515 1.67685H8.84852C4.88769 1.67685 1.67685 4.88769 1.67685 8.84852V35.1514C1.67685 39.1122 4.88769 42.3231 8.84852 42.3231H35.1514C39.1122 42.3231 42.3231 39.1122 42.3231 35.1514V8.84852C42.3232 4.88769 39.1123 1.67685 35.1515 1.67685Z" fill="#FF3F5C" stroke="black" stroke-width="1.81818"></path><path d="M21.9999 32.6463C27.8798 32.6463 32.6463 27.8798 32.6463 21.9999C32.6463 16.1201 27.8798 11.3535 21.9999 11.3535C16.1201 11.3535 11.3535 16.1201 11.3535 21.9999C11.3535 27.8798 16.1201 32.6463 21.9999 32.6463Z" fill="#FF3F5C"></path><path d="M21.9995 29.5152C26.15 29.5152 29.5147 26.1505 29.5147 22C29.5147 17.8495 26.15 14.4849 21.9995 14.4849C17.849 14.4849 14.4844 17.8495 14.4844 22C14.4844 26.1505 17.849 29.5152 21.9995 29.5152Z" fill="#FFDBDE"></path><path d="M33.8989 12.6059C35.2824 12.6059 36.404 11.4843 36.404 10.1008C36.404 8.71726 35.2824 7.5957 33.8989 7.5957C32.5154 7.5957 31.3938 8.71726 31.3938 10.1008C31.3938 11.4843 32.5154 12.6059 33.8989 12.6059Z" fill="white"></path><path d="M21.9999 27.6359C25.1127 27.6359 27.6362 25.1125 27.6362 21.9996C27.6362 18.8868 25.1127 16.3633 21.9999 16.3633C18.887 16.3633 16.3635 18.8868 16.3635 21.9996C16.3635 25.1125 18.887 27.6359 21.9999 27.6359Z" fill="white"></path><path d="M35.4164 11.088C34.0329 11.088 32.9113 9.96643 32.9113 8.58291C32.9113 8.28877 32.9714 8.01072 33.0645 7.74854C32.0933 8.09346 31.3938 9.01104 31.3938 10.1004C31.3938 11.4838 32.5153 12.6055 33.8989 12.6055C34.9883 12.6055 35.9058 11.9059 36.2508 10.9349C35.9886 11.028 35.7106 11.088 35.4164 11.088Z" fill="#FFDBDE"></path><path d="M8.84852 41.4137H35.1514C36.9024 41.4137 38.4837 40.6933 39.6202 39.5349H8.84852C6.43156 39.5349 4.46469 37.5684 4.46469 35.1511V4.37939C3.30641 5.51588 2.58594 7.09721 2.58594 8.84815V35.151C2.58594 38.6098 5.38984 41.4137 8.84852 41.4137Z" fill="#F30051"></path><path d="M23.5075 31.1386C17.6276 31.1386 12.8611 26.372 12.8611 20.4921C12.8611 17.9362 13.7634 15.592 15.2647 13.7568C12.8781 15.7092 11.3535 18.6757 11.3535 21.9996C11.3535 27.8795 16.12 32.6461 21.9999 32.6461C25.3239 32.6461 28.2905 31.1214 30.2428 28.7348C28.4077 30.2361 26.0634 31.1386 23.5075 31.1386Z" fill="#D93F50"></path><path d="M35.1515 2H8.84852C5.07227 2 2 5.07227 2 8.84852V35.1515C2 38.9277 5.07227 42 8.84852 42H35.1515C38.9277 42 42 38.9277 42 35.1515V8.84852C42 5.07227 38.9277 2 35.1515 2ZM40.8281 35.1515C40.8281 38.2816 38.2816 40.8281 35.1515 40.8281H8.84852C5.71844 40.8281 3.17188 38.2816 3.17188 35.1515V8.84852C3.17188 5.71844 5.71844 3.17188 8.84852 3.17188H35.1515C38.2816 3.17188 40.8281 5.71844 40.8281 8.84852V35.1515Z" fill="black"></path><path d="M21.9999 10.4494C15.6307 10.4494 10.4494 15.6307 10.4494 21.9999C10.4494 28.3692 15.6307 33.5504 21.9999 33.5504C28.3692 33.5504 33.5504 28.3692 33.5504 21.9999C33.5504 15.6307 28.3692 10.4494 21.9999 10.4494ZM21.9999 31.7422C16.6283 31.7422 12.2576 27.3715 12.2576 21.9999C12.2576 16.6283 16.6283 12.2576 21.9999 12.2576C27.3715 12.2576 31.7422 16.6283 31.7422 21.9999C31.7422 27.3715 27.3715 31.7422 21.9999 31.7422Z" fill="black" stroke="black" stroke-width="0.636364"></path><path d="M33.8989 7.00977C32.1945 7.00977 30.8079 8.39641 30.8079 10.1007C30.8079 11.8051 32.1945 13.1917 33.8989 13.1917C35.6033 13.1917 36.9898 11.8051 36.9898 10.1007C36.9898 8.39633 35.6033 7.00977 33.8989 7.00977ZM33.8989 12.0198C32.8407 12.0198 31.9797 11.1589 31.9797 10.1007C31.9797 9.0425 32.8407 8.18164 33.8989 8.18164C34.9571 8.18164 35.8179 9.04258 35.8179 10.1007C35.8179 11.1588 34.9571 12.0198 33.8989 12.0198Z" fill="black"></path></svg> 