<svg width="42" height="41" viewBox="0 0 42 41" fill="none" xmlns="http://www.w3.org/2000/svg">
<path d="M32.5728 30.4748C30.4981 31.2251 28.2673 31.4378 26.0882 31.0931C23.9092 30.7484 21.8529 29.8575 20.1111 28.5036C18.3693 27.1496 16.9987 25.3766 16.1272 23.3499C15.2556 21.3232 14.9115 19.1088 15.1269 16.9132C15.3422 14.7176 16.11 12.6123 17.3587 10.7935C18.6075 8.97481 20.2964 7.50189 22.2681 6.51214C24.2397 5.52239 26.4299 5.04804 28.6344 5.1333C30.8389 5.21857 32.9859 5.86068 34.8753 6.99976C31.7566 3.84467 27.6553 1.84728 23.2484 1.33731C18.8415 0.827339 14.3925 1.83528 10.6357 4.19474C6.87885 6.5542 4.03889 10.1241 2.58451 14.3153C1.13014 18.5064 1.14831 23.0681 2.63606 27.2475C4.12381 31.4269 6.99217 34.9741 10.7677 37.3035C14.5432 39.633 19.0001 40.6054 23.4028 40.0603C27.8055 39.5152 31.8908 37.4851 34.9842 34.3053C38.0776 31.1254 39.9942 26.9858 40.4178 22.5698C39.779 24.3871 38.7435 26.0395 37.3865 27.4068C36.0296 28.7741 34.3852 29.8221 32.5728 30.4748Z" fill="#FCEE5F" stroke="#88182D" stroke-width="1.5" stroke-linecap="round" stroke-linejoin="round"/>
<path d="M15.135 17.4473C10.4806 19.5438 6.1433 22.283 2.25 25.5848C2.3925 26.1398 2.54998 26.6948 2.74498 27.2423C3.71572 29.9609 5.28136 32.4285 7.32751 34.4648C7.67665 32.6105 8.35211 30.8329 9.32249 29.2148C11.0875 26.712 13.5089 24.7448 16.32 23.5298C16.1658 23.2044 16.0282 22.8715 15.9075 22.5323C15.3174 20.9048 15.0548 19.1766 15.135 17.4473Z" fill="#F7BC16" stroke="#88182D" stroke-width="1.5" stroke-miterlimit="10"/>
</svg>
