<svg width="1440" height="450" viewBox="0 0 1440 450" fill="none" xmlns="http://www.w3.org/2000/svg">
<g clip-path="url(#clip0_973_1599)">
<mask id="mask0_973_1599" style="mask-type:luminance" maskUnits="userSpaceOnUse" x="0" y="0" width="1440" height="450">
<path d="M1440 0H0V450H1440V0Z" fill="white"/>
</mask>
<g mask="url(#mask0_973_1599)">
<path d="M1447.5 -80.9702H-7.5V530.962H1447.5V-80.9702Z" fill="#2E91CF"/>
<path d="M485.468 254.52C489.368 256.537 493.605 258.27 497.992 258.09C502.38 257.91 506.925 255.442 508.328 251.28C518.393 257.565 532.612 254.34 540.9 246.397C551.265 249.187 564.578 249.465 571.328 239.377C571.23 239.52 580.762 241.335 581.715 241.365C586.17 241.53 591.255 241.117 595.215 238.432C599.625 235.432 601.898 230.145 607.005 227.932C614.048 224.85 621.255 227.572 626.085 220.335C629.085 215.835 630.825 208.53 636.907 207.195C639.255 206.677 641.7 207.315 644.108 207.195C646.807 207.005 649.363 205.907 651.36 204.082C653.357 202.256 654.679 199.809 655.11 197.137C660.795 203.137 672.113 201.862 676.373 194.805C680.873 201.345 692.43 200.737 696.218 193.77C697.32 200.52 703.935 205.972 710.797 205.77C717.66 205.567 723.893 199.665 724.53 192.825C728.685 196.77 735.675 194.235 739.928 190.395C744.18 186.555 747.75 181.432 753.255 179.895C761.64 177.51 770.152 184.53 778.815 183.585C786.547 182.737 793.47 175.657 800.977 177.69C813.615 181.102 814.395 198.69 827.805 201.18C832.425 202.05 837.555 200.617 840.645 197.062C843.877 202.425 850.747 204.562 857.002 204.337C860.242 204.217 863.557 203.542 866.205 201.675C868.852 199.807 870.705 196.567 870.218 193.365C876.083 199.035 886.717 198.615 892.102 192.51C895.327 188.865 896.82 183.667 900.84 180.93C903.728 178.965 907.387 178.68 910.86 178.275C914.332 177.87 918.022 177.315 920.61 174.99C923.662 172.252 921.128 168.66 922.71 166.462C923.73 165.052 929.28 164.962 931.043 164.28C934.853 162.847 942.907 158.467 939.367 153.277C942.022 157.162 952.425 159.945 954.585 159.937C954.96 159.937 955.335 159.937 955.703 159.937V160.012C960.316 160.006 964.798 158.477 968.453 155.662C968.654 156.641 969.043 157.571 969.6 158.4C971.49 162.9 976.785 166.132 981.6 164.805C979.695 165.33 981.533 173.22 981.96 174.345C983.324 177.894 985.838 180.883 989.1 182.835C992.235 184.77 993.743 184.26 994.808 187.905C996.03 192.12 994.11 195.6 997.71 199.402C999.317 201.014 1001.36 202.117 1003.59 202.575C1005.82 203.032 1008.14 202.823 1010.25 201.975C1009.76 204.615 1010.06 207.343 1011.13 209.808C1012.2 212.273 1013.97 214.364 1016.24 215.814C1018.5 217.263 1021.14 218.005 1023.82 217.945C1026.51 217.884 1029.12 217.024 1031.31 215.475C1029.23 223.395 1035.32 232.432 1043.44 233.475C1050.05 234.322 1056.76 230.572 1063.25 232.065C1067 232.927 1070.18 235.455 1073.2 237.892C1076.23 240.33 1079.43 242.812 1083.23 243.562C1087.04 244.312 1091.12 242.812 1092.89 239.347C1093.51 249.382 1110.23 251.1 1115.11 243.352C1117.65 248.767 1121.91 254.392 1127.86 254.602C1133.07 254.805 1137.37 250.852 1141.2 247.32C1145.03 243.787 1149.84 240.187 1154.92 241.282C1160.01 242.377 1163.4 247.732 1168.52 248.07C1170.5 248.122 1172.43 247.398 1173.9 246.051C1175.36 244.705 1176.25 242.841 1176.36 240.855C1177.21 245.355 1181.91 248.632 1186.51 248.467C1191.11 248.302 1195.31 245.145 1197.38 241.027C1197.01 243.005 1197.26 245.048 1198.09 246.881C1198.92 248.714 1200.29 250.25 1202.01 251.281C1203.74 252.313 1205.74 252.791 1207.75 252.652C1209.75 252.512 1211.67 251.761 1213.24 250.5C1206.43 255.96 1221.14 271.972 1227.41 264.217C1228.85 268.935 1233.41 272.28 1238.23 273.217C1240.53 273.645 1242.88 273.66 1245.19 273.262C1247.82 272.156 1250.32 270.733 1252.61 269.025C1258.21 264.88 1262.49 259.201 1264.92 252.675C1273.46 270.39 1300.12 263.452 1298.41 251.115C1309 262.072 1325.98 257.617 1331.75 245.865C1341.02 251.692 1354.89 248.002 1360.04 238.365C1366.37 243.96 1376.75 244.267 1383.4 239.04C1385.95 237.03 1387.9 234.375 1390.4 232.29C1396.76 226.89 1405.4 229.027 1412.05 224.955C1418.86 220.77 1419.4 208.912 1427.22 207.195C1429.57 206.677 1432.02 207.315 1434.43 207.195C1437.13 207.005 1439.68 205.907 1441.68 204.082C1443.68 202.256 1445 199.809 1445.43 197.137C1451.11 203.137 1462.42 201.862 1466.69 194.805C1471.19 201.345 1482.75 200.737 1486.53 193.77C1487.64 200.52 1494.25 205.972 1501.12 205.77C1507.98 205.567 1514.21 199.665 1514.85 192.825C1519.01 196.77 1526 194.235 1530.25 190.395C1534.5 186.555 1538.07 181.432 1543.58 179.895C1551.96 177.51 1560.47 184.53 1569.13 183.585C1575.69 182.872 1581.05 177.585 1587.65 177.352C1595.69 177.037 1598.84 186.127 1602.65 191.88C1605.84 196.71 1609.97 201.39 1615.56 202.912C1621.15 204.435 1628.23 201.412 1629.13 195.675C1633.5 201.21 1639.64 205.875 1646.71 206.25C1653.78 206.625 1661.26 201.33 1661.39 194.25C1666.9 196.177 1673.16 199.027 1678.2 195.27C1681.77 192.6 1682.95 187.485 1686.49 184.642C1689.25 182.392 1692.88 181.71 1696.37 181.207C1699.85 180.705 1703.47 180.315 1706.54 178.59C1709.62 176.865 1712.04 173.385 1711.3 169.935C1710.84 168.152 1709.84 166.555 1708.43 165.36C1713.49 166.17 1719.37 165.195 1723.68 162.307C1724.88 161.512 1731.58 155.302 1729.68 153.247C1736.89 161.152 1750.36 162.247 1758.73 155.595C1759.09 157.31 1760.01 158.858 1761.34 159.997V-65.1901H1385.37C1365.57 -65.1901 1325.75 -57.4651 1309.94 -66.8251H1298.14C1288.54 -72.5101 1285.12 -82.5751 1276.53 -88.3576C1266.56 -95.1076 1250.75 -94.5226 1239.28 -94.8001C1097.93 -98.2356 956.502 -92.6242 815.865 -78.0001C770.362 -73.2676 724.86 -67.5901 679.215 -65.1601H595.012C575.22 -65.1601 535.388 -57.4351 519.578 -66.7951C509.97 -72.4801 506.55 -82.5451 497.962 -88.3276L460.957 -94.7701C319.604 -98.2159 178.175 -92.6145 37.5375 -78.0001C-7.96496 -73.2976 -53.475 -67.6201 -99.12 -65.1901H-183.315C-203.115 -65.1901 -242.948 -57.4651 -258.758 -66.8251C-268.358 -72.5101 -271.777 -82.5751 -280.372 -88.3576C-290.347 -95.1076 -306.142 -94.5226 -317.61 -94.8001C-458.954 -98.2347 -600.373 -92.6232 -741 -78.0001C-800.647 -71.7976 -860.25 -63.9676 -920.25 -63.9601C-916.155 -10.6201 -913.712 42.8099 -912.922 96.3299C-912.33 136.402 -916.125 184.177 -899.04 221.835C-890.445 240.787 -869.04 255.69 -849.12 249.697C-844.56 248.325 -839.535 245.985 -835.343 248.197C-831.885 250.05 -830.595 254.197 -828.532 257.557C-822 268.11 -807.533 270.015 -795.135 269.422C-782.738 268.83 -769.26 267.112 -758.812 273.825C-751.448 278.565 -747.075 286.642 -742.553 294.142C-738.03 301.642 -732.51 309.322 -724.245 312.217C-715.98 315.112 -704.745 310.462 -704.107 301.717C-691.177 311.722 -668.655 300.967 -668.303 284.632C-664.485 288.735 -657.345 286.695 -653.377 282.735C-649.41 278.775 -647.055 273.375 -642.877 269.647C-634.335 262.027 -620.625 263.73 -610.86 269.7C-601.095 275.67 -594 285 -585.697 292.897C-576.412 301.747 -565.147 309.06 -552.502 311.19C-539.857 313.32 -525.735 309.457 -517.777 299.4C-509.212 308.4 -492.435 307.252 -485.19 297.15C-466.83 303.682 -444.75 297.9 -431.94 283.222C-430.44 281.497 -428.887 279.555 -426.69 278.97C-423.405 278.092 -420.27 280.47 -417.383 282.277C-405.03 289.897 -387.165 286.687 -378.232 275.242C-377.506 279.861 -375.543 284.196 -372.55 287.788C-369.558 291.38 -365.649 294.094 -361.238 295.642C-356.786 297.069 -352.031 297.265 -347.477 296.209C-342.922 295.153 -338.739 292.884 -335.37 289.642C-331.89 286.2 -329.37 281.752 -325.395 278.91C-321.42 276.067 -316.643 275.22 -312.203 273.45C-307.799 271.671 -303.795 269.029 -300.428 265.68C-299.438 264.705 -291.93 254.985 -292.883 254.49C-288.983 256.515 -284.753 258.24 -280.365 258.067C-275.978 257.895 -271.425 255.42 -270.03 251.257C-259.958 257.542 -245.737 254.317 -237.45 246.375C-227.092 249.165 -213.78 249.442 -207.03 239.355C-207.128 239.497 -197.588 241.312 -196.643 241.342C-192.188 241.507 -187.095 241.095 -183.143 238.41C-178.74 235.41 -176.46 230.122 -171.352 227.91C-164.317 224.827 -157.102 227.55 -152.28 220.312C-149.28 215.812 -147.54 208.507 -141.457 207.172C-139.102 206.655 -136.658 207.292 -134.25 207.172C-131.507 207.006 -128.911 205.875 -126.922 203.977C-124.945 202.181 -123.649 199.757 -123.255 197.115C-117.562 203.115 -106.252 201.84 -101.992 194.782C-97.4925 201.322 -85.9275 200.715 -82.1475 193.747C-81.0375 200.497 -74.43 205.95 -67.56 205.747C-60.69 205.545 -54.4725 199.642 -53.835 192.802C-49.68 196.747 -42.6825 194.212 -38.43 190.372C-34.1775 186.532 -30.615 181.41 -25.1025 179.872C-16.725 177.45 -8.25002 184.5 0.449982 183.525C8.17498 182.677 15.0975 175.597 22.605 177.63C35.25 181.042 36.03 198.63 49.4325 201.12C54.06 201.99 59.1825 200.557 62.2725 197.002C65.5125 202.365 72.375 204.502 78.6375 204.277C81.87 204.157 85.1925 203.482 87.8325 201.615C90.4725 199.747 92.3325 196.507 91.845 193.305C97.7175 198.975 108.345 198.555 113.738 192.45C116.963 188.805 118.448 183.607 122.468 180.87C125.355 178.905 129.023 178.62 132.495 178.215C135.968 177.81 139.658 177.255 142.245 174.93C145.298 172.192 142.762 168.6 144.345 166.402C145.357 164.992 150.915 164.902 152.67 164.22C156.488 162.787 164.543 158.407 161.003 153.217C163.65 157.102 174.052 159.885 176.22 159.877C176.587 159.877 176.97 159.877 177.33 159.877V159.952C181.942 159.942 186.423 158.413 190.08 155.602C190.278 156.582 190.668 157.512 191.227 158.34C193.11 162.84 198.412 166.072 203.227 164.745C201.315 165.27 203.16 173.16 203.58 174.285C204.959 177.824 207.483 180.8 210.75 182.737C213.893 184.672 215.392 184.162 216.457 187.807C217.687 192.022 215.767 195.502 219.36 199.305C220.961 200.94 223.01 202.066 225.249 202.541C227.488 203.016 229.818 202.819 231.945 201.975C231.454 204.614 231.762 207.34 232.828 209.804C233.894 212.267 235.671 214.357 237.93 215.806C240.19 217.255 242.831 217.998 245.514 217.939C248.198 217.88 250.804 217.022 252.997 215.475C250.912 223.395 257.003 232.432 265.125 233.475C271.74 234.322 278.445 230.572 284.947 232.065C288.697 232.927 291.877 235.455 294.9 237.892C297.922 240.33 301.118 242.812 304.928 243.562C308.738 244.312 312.81 242.812 314.58 239.347C315.195 249.382 331.92 251.1 336.81 243.352C339.345 248.767 343.597 254.392 349.56 254.602C354.757 254.805 359.062 250.852 362.887 247.32C366.712 243.787 371.528 240.187 376.62 241.282C381.713 242.377 385.095 247.732 390.203 248.07C392.191 248.122 394.122 247.398 395.586 246.051C397.051 244.705 397.933 242.841 398.047 240.855C398.91 245.355 403.598 248.632 408.203 248.467C412.808 248.302 417 245.145 419.078 241.027C418.715 243.001 418.964 245.039 419.791 246.867C420.619 248.695 421.985 250.227 423.707 251.257C425.429 252.287 427.425 252.767 429.427 252.632C431.429 252.496 433.342 251.753 434.91 250.5C428.093 255.96 442.808 271.972 449.085 264.217C450.51 268.935 455.085 272.28 459.9 273.217H459.968C463.856 273.888 467.856 273.117 471.218 271.05C472.273 270.425 473.295 269.744 474.277 269.01C479.827 264.915 483.083 261 485.468 254.52Z" fill="#F1EADE" stroke="#A99F93" stroke-width="1.5" stroke-linecap="round" stroke-linejoin="round"/>
<path d="M1333.71 270.57C1331.12 273.923 1328.63 277.53 1325.83 280.755C1329.15 282.224 1332.78 282.839 1336.39 282.546C1340.01 282.252 1343.49 281.059 1346.53 279.075C1349.57 277.09 1352.06 274.378 1353.78 271.184C1355.5 267.991 1356.4 264.418 1356.38 260.79C1356.37 256.899 1355.3 253.085 1353.3 249.75C1346.37 256.35 1339.5 263.003 1333.71 270.57Z" fill="#FFE200" stroke="#88182D" stroke-width="1.5" stroke-linecap="round" stroke-linejoin="round"/>
<path d="M1339.6 239.61C1336.39 238.814 1333.05 238.762 1329.83 239.458C1326.6 240.153 1323.58 241.577 1320.99 243.622C1318.39 245.666 1316.31 248.276 1314.88 251.251C1313.45 254.227 1312.73 257.49 1312.75 260.79C1312.75 261.427 1312.89 262.035 1312.94 262.657C1322.86 256.027 1332.5 248.85 1339.6 239.61Z" fill="#FFE200" stroke="#88182D" stroke-width="1.5" stroke-linecap="round" stroke-linejoin="round"/>
<path d="M1339.6 239.61C1332.5 248.85 1322.86 256.027 1312.94 262.657C1313.27 266.553 1314.63 270.291 1316.9 273.475C1319.17 276.66 1322.25 279.175 1325.83 280.755C1328.62 277.53 1331.12 273.922 1333.71 270.57C1339.53 263.002 1346.37 256.32 1353.3 249.772C1351.82 247.242 1349.84 245.038 1347.49 243.292C1345.13 241.545 1342.45 240.293 1339.6 239.61Z" fill="#F7BC16" stroke="#88182D" stroke-width="1.5" stroke-miterlimit="10"/>
<path d="M878.25 234.157C877.89 236.662 877.5 239.28 876 241.327C873.675 244.522 869.407 245.422 865.62 246.525C864.869 246.67 864.181 247.042 863.647 247.59C862.755 248.722 863.422 250.477 864.577 251.34C865.732 252.202 867.202 252.45 868.56 252.915C870.776 253.711 872.735 255.093 874.227 256.914C875.72 258.736 876.69 260.928 877.035 263.257C877.237 264.757 877.192 266.355 877.98 267.637C878.767 268.92 880.837 269.55 881.73 268.35C882.014 267.897 882.184 267.383 882.225 266.85C882.675 264.142 883.035 261.382 884.122 258.855C885.21 256.327 887.122 254.025 889.762 253.2C890.953 252.908 892.164 252.702 893.385 252.585C894.611 252.458 895.77 251.961 896.707 251.16C897.164 250.748 897.47 250.195 897.579 249.59C897.688 248.984 897.592 248.36 897.307 247.815C896.37 246.36 894.24 246.592 892.515 246.39C891.218 246.177 889.981 245.695 888.883 244.974C887.785 244.253 886.85 243.309 886.14 242.205C884.73 239.99 883.764 237.521 883.297 234.937C883.005 233.61 882.345 230.895 880.702 230.572C878.842 230.25 878.415 232.83 878.25 234.157Z" fill="#FCEE5F" stroke="#88182D" stroke-width="1.5" stroke-linecap="round" stroke-linejoin="round"/>
<path d="M880.71 230.587C878.843 230.22 878.415 232.837 878.22 234.157C877.86 236.662 877.47 239.28 875.97 241.327C873.645 244.522 869.378 245.422 865.59 246.525C864.84 246.671 864.151 247.042 863.618 247.59C862.725 248.722 863.393 250.477 864.548 251.34C865.703 252.202 867.173 252.45 868.53 252.915C870 253.437 871.359 254.231 872.535 255.255C874.505 253.912 876.119 252.11 877.238 250.005C878.13 248.227 878.55 246.255 879.608 244.552C880.937 242.61 882.837 241.129 885.045 240.315C884.248 238.596 883.656 236.788 883.283 234.93C883.013 233.625 882.353 230.91 880.71 230.587Z" fill="#F7BC16" stroke="#88182D" stroke-width="1.5" stroke-miterlimit="10"/>
<path d="M108.93 178.29C105.63 180.48 101.43 180.54 97.6055 181.665C97.8875 185.527 99.1808 189.246 101.355 192.45C114.773 186.412 120.15 165.997 134.1 163.012C131.856 161.111 129.256 159.675 126.45 158.79C124.433 159.259 122.529 160.123 120.848 161.332C115.283 165.577 114.75 174.42 108.93 178.29Z" fill="#F27121" stroke="#88182D" stroke-width="1.5" stroke-linecap="round" stroke-linejoin="round"/>
<path d="M121.665 188.34C119.843 191.752 118.665 195.652 115.823 198.27C114.661 199.279 113.373 200.131 111.99 200.805C116.142 202.375 120.675 202.636 124.98 201.555C125.348 200.88 125.73 200.205 125.993 199.507C127.448 196.057 128.145 192.27 130.163 189.12C132.855 184.912 137.168 182.722 141.93 181.005C141.93 180.66 141.983 180.315 141.983 179.97C141.978 177.922 141.687 175.885 141.12 173.917C139.965 174.382 138.713 174.735 137.55 175.11C130.749 177.309 125.059 182.049 121.665 188.34Z" fill="#F27121" stroke="#88182D" stroke-width="1.5" stroke-linecap="round" stroke-linejoin="round"/>
<path d="M101.34 192.45C103.938 196.272 107.659 199.192 111.99 200.805C113.373 200.131 114.661 199.279 115.822 198.27C118.657 195.652 119.842 191.752 121.665 188.34C125.063 182.057 130.752 177.326 137.55 175.132C138.712 174.757 139.965 174.382 141.12 173.94C139.919 169.676 137.469 165.87 134.085 163.012C120.135 165.997 114.75 186.412 101.34 192.45Z" fill="#F9AD74" stroke="#88182D" stroke-width="1.5" stroke-miterlimit="10"/>
<path d="M97.5 180C97.5 180.562 97.545 181.117 97.59 181.672C101.4 180.54 105.615 180.487 108.915 178.297C114.735 174.427 115.267 165.585 120.817 161.34C122.499 160.131 124.403 159.267 126.42 158.797C123.089 157.748 119.559 157.498 116.113 158.067C112.668 158.636 109.405 160.008 106.589 162.073C103.773 164.138 101.483 166.836 99.9037 169.951C98.3246 173.065 97.5011 176.508 97.5 180Z" fill="#F9AD74" stroke="#88182D" stroke-width="1.5" stroke-miterlimit="10"/>
<path d="M130.163 189.142C128.145 192.292 127.448 196.08 125.993 199.53C125.693 200.227 125.348 200.902 124.98 201.577C129.647 200.444 133.822 197.83 136.877 194.125C139.933 190.42 141.706 185.825 141.93 181.027C137.168 182.745 132.855 184.935 130.163 189.142Z" fill="#F9AD74" stroke="#88182D" stroke-width="1.5" stroke-miterlimit="10"/>
<path d="M731.573 179.475C729.498 180.225 727.267 180.438 725.088 180.093C722.909 179.749 720.853 178.858 719.111 177.504C717.369 176.15 715.999 174.377 715.127 172.35C714.256 170.323 713.912 168.109 714.127 165.913C714.342 163.718 715.11 161.613 716.359 159.794C717.607 157.975 719.296 156.502 721.268 155.512C723.24 154.523 725.43 154.048 727.634 154.134C729.839 154.219 731.986 154.861 733.875 156C730.757 152.845 726.655 150.848 722.248 150.338C717.842 149.828 713.392 150.836 709.636 153.195C705.879 155.554 703.039 159.124 701.585 163.316C700.13 167.507 700.148 172.068 701.636 176.248C703.124 180.427 705.992 183.974 709.768 186.304C713.543 188.633 718 189.606 722.403 189.061C726.806 188.515 730.891 186.485 733.984 183.306C737.078 180.126 738.994 175.986 739.418 171.57C738.779 173.387 737.743 175.04 736.387 176.407C735.03 177.774 733.385 178.822 731.573 179.475Z" fill="#FCEE5F" stroke="#88182D" stroke-width="1.5" stroke-linecap="round" stroke-linejoin="round"/>
<path d="M714.135 166.447C709.481 168.544 705.143 171.283 701.25 174.585C701.392 175.14 701.55 175.695 701.745 176.242C702.716 178.961 704.281 181.428 706.328 183.465C706.677 181.611 707.352 179.833 708.322 178.215C710.087 175.712 712.509 173.745 715.32 172.53C715.166 172.204 715.028 171.872 714.908 171.532C714.317 169.905 714.055 168.177 714.135 166.447Z" fill="#F7BC16" stroke="#88182D" stroke-width="1.5" stroke-miterlimit="10"/>
<path d="M618.795 224.842C616.095 225.982 613.027 225.982 610.32 227.092C609.717 227.346 609.14 227.655 608.595 228.015C608.959 228.852 609.228 229.728 609.397 230.625C609.892 233.25 609.78 235.98 610.44 238.567C611.1 241.155 613.35 243.742 615.765 242.842C617.535 242.19 618.135 240.03 618.39 238.155C618.72 235.635 618.855 233.062 619.612 230.655C620.37 228.247 621.862 225.877 624.157 224.797C625.995 223.935 628.11 223.972 630.075 223.462C632.04 222.952 634.072 221.527 634.102 219.502C634.102 217.207 631.68 215.752 629.4 215.302C625.912 218.46 623.16 222.99 618.795 224.842Z" fill="#F7BC16" stroke="#E55D33" stroke-width="1.5" stroke-linecap="round" stroke-linejoin="round"/>
<path d="M621.563 212.197C620.445 210.435 620.363 208.057 620.168 205.897C619.5 198.615 612.563 198.292 611.093 205.455C610.568 208.005 610.643 210.825 609.143 212.955C607.763 214.897 605.34 215.82 602.993 216.217C601.641 216.341 600.312 216.643 599.04 217.117C597.81 217.695 596.745 218.895 596.835 220.252C596.94 221.902 598.65 222.982 600.27 223.335C601.89 223.687 603.608 223.59 605.123 224.242C605.345 224.339 605.558 224.455 605.76 224.587C610.26 221.632 615.248 219.277 619.035 215.452C620.002 214.47 620.851 213.377 621.563 212.197Z" fill="#F7BC16" stroke="#E55D33" stroke-width="1.5" stroke-linecap="round" stroke-linejoin="round"/>
<path d="M622.357 213.187C622.051 212.893 621.784 212.56 621.562 212.197C620.85 213.375 620.001 214.465 619.035 215.445C615.285 219.27 610.267 221.625 605.76 224.58C607.044 225.399 608.037 226.604 608.595 228.022C609.14 227.662 609.718 227.353 610.32 227.1C613.027 225.982 616.095 225.982 618.795 224.85C623.16 222.997 625.912 218.467 629.4 215.295L629.107 215.227C626.752 214.815 624.112 214.815 622.357 213.187Z" fill="#FCEE5F" stroke="#E55D33" stroke-width="1.5" stroke-linecap="round" stroke-linejoin="round"/>
<path d="M1118.88 230.94C1119.17 231.03 1119.46 231.112 1119.76 231.18C1122.76 231.832 1125.97 231.66 1128.8 232.867C1131.63 234.075 1133.73 236.58 1135.07 239.467C1138.07 228.675 1148.57 221.835 1158.81 217.192C1160.8 216.285 1162.82 215.415 1164.81 214.537C1163.34 214.084 1162 213.316 1160.86 212.287C1158.52 210.127 1157.7 207.037 1157.27 203.805C1153.17 205.875 1149.02 207.817 1144.99 209.805C1135.07 214.657 1124.71 221.925 1118.88 230.94Z" fill="#FCEE5F" stroke="#E55D33" stroke-width="1.5" stroke-linecap="round" stroke-linejoin="round"/>
<path d="M1135.08 239.452C1135.86 241.148 1136.42 242.934 1136.76 244.77C1137.68 249.66 1137.51 254.73 1138.71 259.552C1139.9 264.202 1144.13 269.197 1148.63 267.525C1151.91 266.295 1153.04 262.275 1153.51 258.795C1154.13 254.092 1154.38 249.307 1155.76 244.777C1157.14 240.247 1159.94 235.882 1164.23 233.872C1167.65 232.275 1171.59 232.335 1175.24 231.39C1178.9 230.445 1182.68 227.79 1182.74 224.017C1182.82 219.57 1177.83 216.832 1173.44 216.075C1170.6 215.58 1167.53 215.392 1164.83 214.507C1162.82 215.385 1160.79 216.255 1158.83 217.162C1148.62 221.82 1138.12 228.66 1135.08 239.452Z" fill="#F9AD74" stroke="#E55D33" stroke-width="1.5" stroke-miterlimit="10"/>
<path d="M1139.91 197.902C1138.94 202.657 1139.09 207.9 1136.28 211.86C1133.72 215.475 1129.21 217.185 1124.84 217.927C1122.35 218.347 1119.76 218.542 1117.47 219.607C1115.18 220.672 1113.2 222.915 1113.36 225.435C1113.55 228.21 1116.16 230.115 1118.88 230.94C1124.72 221.94 1135.07 214.657 1145.03 209.79C1149.04 207.832 1153.21 205.89 1157.31 203.79C1157.09 202.095 1156.97 200.362 1156.82 198.697C1155.58 185.167 1142.65 184.575 1139.91 197.902Z" fill="#F9AD74" stroke="#E55D33" stroke-width="1.5" stroke-miterlimit="10"/>
<path d="M209.798 109.717C213.281 111.319 217.172 111.812 220.945 111.129C224.717 110.446 228.189 108.621 230.89 105.9C233.59 103.179 235.39 99.6933 236.044 95.9157C236.698 92.1381 236.176 88.2507 234.548 84.7798L222.51 95.5123C217.74 99.7498 212.858 104.182 209.798 109.717Z" fill="#F8BFC6" stroke="#634A9D" stroke-width="1.5" stroke-linecap="round" stroke-linejoin="round"/>
<path d="M223.387 81.1649C224.737 79.7265 225.96 78.1731 227.04 76.5224C223.429 74.3619 219.195 73.4825 215.022 74.0266C210.85 74.5707 206.982 76.5064 204.046 79.5206C201.11 82.5348 199.277 86.4514 198.842 90.6368C198.408 94.8223 199.398 99.0319 201.652 102.585L201.81 102.465C209.79 96.2324 216.607 88.6799 223.387 81.1649Z" fill="#F8BFC6" stroke="#634A9D" stroke-width="1.5" stroke-linecap="round" stroke-linejoin="round"/>
<path d="M227.04 76.5C225.96 78.1507 224.737 79.7041 223.387 81.1425C216.637 88.6425 209.79 96.21 201.81 102.442L201.652 102.562C203.611 105.686 206.443 108.166 209.797 109.695C212.857 104.16 217.74 99.735 222.502 95.49L234.54 84.75C232.931 81.3052 230.316 78.4288 227.04 76.5Z" fill="#E08391" stroke="#634A9D" stroke-width="1.5" stroke-linecap="round" stroke-linejoin="round"/>
<path d="M656.01 93.5923C657.697 89.5348 657.69 85.0123 658.027 80.6323C658.286 76.9904 658.948 73.3884 660 69.8923C654.628 68.387 648.935 68.4804 643.615 70.1612C638.296 71.842 633.582 75.0372 630.051 79.3556C626.52 83.6741 624.324 88.9284 623.733 94.4755C623.142 100.023 624.181 105.622 626.723 110.587C637.875 106.68 651.067 105.472 656.01 93.5923Z" fill="#F7BC16" stroke="#88182D" stroke-width="1.5" stroke-miterlimit="10"/>
<path d="M681.412 97.71C681.397 92.4094 679.912 87.217 677.122 82.71C672.217 86.0925 667.56 89.7525 665.587 94.905C664.147 98.655 664.327 102.87 662.79 106.575C659.04 115.687 647.13 118.072 638.175 122.677C642.518 125.235 647.46 126.598 652.5 126.63C660.169 126.628 667.523 123.58 672.944 118.157C678.366 112.733 681.412 105.379 681.412 97.71Z" fill="#F7BC16" stroke="#88182D" stroke-width="1.5" stroke-miterlimit="10"/>
<path d="M662.79 106.597C664.29 102.892 664.148 98.6698 665.588 94.9273C667.56 89.7748 672.218 86.1148 677.123 82.7323C673.274 76.4139 667.144 71.8168 660 69.8923C658.95 73.3887 658.291 76.9907 658.035 80.6323C657.698 85.0123 657.705 89.5348 656.018 93.5923C651.075 105.472 637.883 106.68 626.723 110.587C629.267 115.662 633.25 119.875 638.175 122.7C647.13 118.095 659.01 115.71 662.79 106.597Z" fill="#FCEE5F" stroke="#88182D" stroke-width="1.5" stroke-linecap="round" stroke-linejoin="round"/>
<path d="M1057.97 123.75C1065.77 127.337 1074.48 128.44 1082.92 126.912C1091.37 125.383 1099.14 121.295 1105.18 115.203C1111.23 109.111 1115.25 101.308 1116.71 92.8522C1118.17 84.3959 1117 75.6948 1113.35 67.9275L1086.41 91.9275C1075.75 101.43 1064.81 111.322 1057.97 123.75Z" fill="#F8BFC6" stroke="#634A9D" stroke-width="1.5" stroke-linecap="round" stroke-linejoin="round"/>
<path d="M1096.56 49.4099C1094.15 53.1047 1091.41 56.5806 1088.39 59.7974C1073.22 76.6199 1057.94 93.5474 1040.09 107.475L1039.74 107.752C1044.12 114.759 1050.46 120.323 1057.97 123.75C1064.81 111.36 1075.75 101.467 1086.41 91.9574L1113.35 67.9574C1109.77 60.2125 1103.91 53.7429 1096.56 49.4099Z" fill="#E08391" stroke="#634A9D" stroke-width="1.5" stroke-linecap="round" stroke-linejoin="round"/>
<path d="M1033.88 92.6399C1034.85 98.0069 1036.84 103.138 1039.74 107.752L1040.09 107.475C1057.94 93.5324 1073.22 76.6199 1088.39 59.7974C1091.41 56.5806 1094.15 53.1047 1096.56 49.4099C1094.58 48.252 1092.51 47.249 1090.37 46.4099C1074.49 61.1324 1058.31 75.5549 1040.62 88.0124C1038.39 89.5649 1036.14 91.1024 1033.88 92.6399Z" fill="#F8BFC6" stroke="#634A9D" stroke-width="1.5" stroke-linecap="round" stroke-linejoin="round"/>
<path d="M1074.8 44.4L1075.55 43.4475H1075.24C1064.62 43.4499 1054.39 47.4729 1046.61 54.7077C1038.83 61.9426 1034.08 71.8531 1033.31 82.4475C1048.64 71.475 1062.79 58.875 1074.8 44.4Z" fill="#F8BFC6" stroke="#634A9D" stroke-width="1.5" stroke-linecap="round" stroke-linejoin="round"/>
<path d="M1074.8 44.3998C1062.8 58.8748 1048.64 71.4748 1033.35 82.4548C1033.28 83.4523 1033.23 84.4648 1033.23 85.4548C1033.24 87.8568 1033.46 90.2536 1033.88 92.6173C1036.13 91.1173 1038.38 89.5423 1040.63 87.9673C1058.33 75.5098 1074.5 61.0873 1090.39 46.3648C1085.69 44.4693 1080.67 43.4721 1075.61 43.4248L1074.8 44.3998Z" fill="#E08391" stroke="#634A9D" stroke-width="1.5" stroke-linecap="round" stroke-linejoin="round"/>
<path d="M472.334 286.327C472.589 286.155 472.822 285.945 473.084 285.78C475.844 284.212 479.122 283.897 482.084 282.78C483.584 282.225 485.212 281.22 485.414 279.622C485.594 278.175 484.469 276.825 483.164 276.225C481.791 275.73 480.342 275.476 478.882 275.475C476.199 275.313 473.589 274.544 471.247 273.225C469.792 274.252 468.524 275.52 467.497 276.975C466.252 278.835 465.629 281.04 464.564 282.975C462.824 286.155 460.109 288.42 457.064 290.385C457.556 291.166 457.922 292.019 458.152 292.912C458.759 295.312 458.467 297.802 458.294 300.292C459.414 299.095 460.7 298.064 462.112 297.232C463.511 296.444 465.006 295.839 466.559 295.432C466.559 295.305 466.612 295.177 466.649 295.05C467.632 291.525 469.409 288.337 472.334 286.327Z" fill="#A4DCE9" stroke="#334EA1" stroke-width="1.5" stroke-miterlimit="10"/>
<path d="M465.517 270.21C466.178 269.343 466.784 268.437 467.332 267.495C466.049 262.41 464.707 254.055 460.814 256.92C458.377 258.712 458.032 261.668 457.762 264.69C457.477 267.848 457.267 271.065 454.852 273.128C453.179 274.553 450.869 274.92 448.694 275.235L445.889 275.633L442.994 276.053C440.744 276.375 437.902 277.238 437.662 279.525C437.497 281.13 438.869 282.525 440.392 283.095C441.483 283.436 442.617 283.62 443.759 283.643C444.967 283.013 446.197 282.412 447.412 281.85C453.989 278.805 461.077 275.947 465.517 270.21Z" fill="#A4DCE9" stroke="#334EA1" stroke-width="1.5" stroke-miterlimit="10"/>
<path d="M464.572 282.997C465.637 281.04 466.259 278.835 467.504 276.997C468.531 275.542 469.8 274.274 471.254 273.247C470.171 272.604 469.225 271.753 468.472 270.742C467.928 269.726 467.542 268.634 467.324 267.502C466.776 268.444 466.17 269.351 465.509 270.217C461.069 275.955 453.982 278.812 447.404 281.857C446.189 282.42 444.959 283.02 443.752 283.65C444.224 283.687 444.697 283.71 445.162 283.762C449.467 284.212 454.649 286.53 457.057 290.415C460.117 288.442 462.832 286.177 464.572 282.997Z" fill="#29C0DC" stroke="#334EA1" stroke-width="1.5" stroke-linecap="round" stroke-linejoin="round"/>
<path d="M458.295 300.315C458.12 301.996 458.161 303.692 458.415 305.362C458.685 306.817 459.412 308.362 460.83 308.842C462.33 309.337 464.055 308.22 464.782 306.765C465.51 305.31 465.532 303.63 465.607 302.002C465.699 299.793 466.018 297.599 466.56 295.455C465.006 295.862 463.511 296.467 462.112 297.255C460.7 298.087 459.414 299.117 458.295 300.315Z" fill="#29C0DC" stroke="#334EA1" stroke-width="1.5" stroke-linecap="round" stroke-linejoin="round"/>
<path d="M309.307 180C312.57 178.5 316.282 177.862 319.2 175.755C326.107 170.775 325.417 160.207 330.022 153.045C330.79 151.881 331.68 150.802 332.677 149.827C329.393 146.504 326.838 142.532 325.177 138.165C322.695 144.915 320.182 151.95 314.482 156.165C308.04 160.95 298.965 161.055 291.532 163.732C293.362 164.842 295.492 165.367 297.442 166.252C303 168.75 306.945 174.247 309.307 180Z" fill="#FCEE5F" stroke="#F27121" stroke-width="1.5" stroke-linecap="round" stroke-linejoin="round"/>
<path d="M330 153.038C325.395 160.2 326.085 170.768 319.178 175.748C316.26 177.855 312.548 178.463 309.285 179.993C309.943 181.567 310.487 183.186 310.913 184.837C311.738 188.077 311.168 191.588 313.163 194.588C313.859 195.695 314.92 196.525 316.163 196.935C318.938 197.775 320.858 195.878 321.87 193.785C324.24 188.933 322.755 183.165 324.975 178.275C328.26 171.03 335.79 168.472 342.548 165.57C344.048 164.925 345.69 164.13 346.245 162.57C346.8 161.01 346.05 159.375 344.903 158.28C343.677 157.269 342.313 156.438 340.853 155.812C337.83 154.254 335.071 152.229 332.678 149.812C331.673 150.789 330.775 151.87 330 153.038Z" fill="#F7BC16" stroke="#F27121" stroke-width="1.5" stroke-miterlimit="10"/>
<path d="M325.163 138.158C324.663 136.869 324.25 135.548 323.925 134.205C323.408 132.023 323.093 129.705 321.48 127.988C321.112 127.572 320.66 127.238 320.156 127.007C319.651 126.776 319.103 126.652 318.548 126.645C315.743 126.645 314.558 129.645 313.995 132.405C313.928 132.728 313.868 133.043 313.823 133.35C313.073 137.813 311.873 142.733 309.143 146.55C305.468 151.703 299.513 152.955 293.52 154.125C292.35 154.328 291.243 154.795 290.28 155.49C286.643 158.265 288.735 162.105 291.48 163.74H291.518C298.95 161.063 308.018 160.958 314.468 156.173C320.168 151.943 322.68 144.945 325.163 138.158Z" fill="#F7BC16" stroke="#F27121" stroke-width="1.5" stroke-miterlimit="10"/>
<path d="M897.128 139.5C889.973 144.713 879.48 143.25 872.378 148.545C865.628 153.54 864.053 162.885 859.29 169.763C864.459 172.085 870.176 172.915 875.792 172.158C881.408 171.401 886.701 169.087 891.071 165.479C895.441 161.871 898.714 157.111 900.52 151.74C902.326 146.368 902.593 140.598 901.29 135.083C900.177 136.791 898.767 138.288 897.128 139.5Z" fill="#29C0DC" stroke="#334EA1" stroke-width="1.5" stroke-linecap="round" stroke-linejoin="round"/>
<path d="M858.39 149.82C858.81 146.917 857.902 143.895 858.622 141.052C860.722 132.75 873.495 132.862 878.437 125.857C881.122 122.055 880.8 117.075 879.24 112.552C873.147 110.965 866.712 111.31 860.824 113.54C854.935 115.77 849.886 119.774 846.373 124.999C842.86 130.224 841.058 136.412 841.216 142.706C841.373 149 843.483 155.09 847.252 160.132C852.75 158.437 857.61 155.25 858.39 149.82Z" fill="#29C0DC" stroke="#334EA1" stroke-width="1.5" stroke-linecap="round" stroke-linejoin="round"/>
<path d="M879.239 112.552C880.799 117.052 881.122 122.055 878.437 125.857C873.494 132.862 860.722 132.75 858.622 141.052C857.872 143.895 858.809 146.917 858.389 149.82C857.639 155.265 852.772 158.437 847.252 160.132C850.359 164.325 854.491 167.648 859.252 169.785C864.014 162.907 865.612 153.562 872.339 148.567C879.449 143.317 889.942 144.735 897.089 139.522C898.718 138.307 900.118 136.811 901.222 135.105C899.961 129.699 897.247 124.741 893.373 120.766C889.498 116.791 884.611 113.951 879.239 112.552Z" fill="#A4DCE9" stroke="#334EA1" stroke-width="1.5" stroke-miterlimit="10"/>
<path d="M493.268 37.2148C489.578 41.9023 486.518 47.1598 481.943 50.9473C477.233 54.8473 471.33 56.8273 465.713 59.3398C470.355 63.2344 473.729 68.426 475.403 74.2498C481.403 60.5923 492.653 49.0723 506.58 43.9348C504.657 43.4924 502.771 42.9006 500.94 42.1648C498.139 40.9283 495.549 39.2578 493.268 37.2148Z" fill="#E08391" stroke="#EC1B30" stroke-width="1.5" stroke-linecap="round" stroke-linejoin="round"/>
<path d="M484.267 32.8275C485.248 31.1094 486.062 29.3011 486.697 27.4275C484.492 22.02 483.3 16.1775 481.14 10.755C477.885 2.61748 474.937 21.2025 474.39 23.07C472.927 27.75 470.835 32.25 467.55 35.895C466.808 36.7206 466.006 37.4902 465.15 38.1975C458.985 43.2825 450.645 44.415 443.197 46.5525C439.717 47.5575 439.447 49.665 443.025 51.6075C447.322 53.925 453.067 53.7 457.98 55.1025C460.897 52.8525 463.747 50.445 466.725 48.2625C473.055 43.6125 480.27 39.585 484.267 32.8275Z" fill="#E08391" stroke="#EC1B30" stroke-width="1.5" stroke-linecap="round" stroke-linejoin="round"/>
<path d="M475.402 74.2499C476.139 76.6601 476.602 79.1458 476.782 81.6599C476.925 83.7074 476.28 90.8924 479.197 90.6599C482.265 90.4349 482.452 83.8724 482.835 81.7649C483.66 77.1899 484.582 72.6149 486.405 68.3174C488.655 62.9924 492.255 58.0649 497.22 55.0874C501.172 52.7174 505.807 51.6674 510.345 51.1874C512.482 50.9624 517.905 51.1874 515.025 47.3999C514.057 46.1474 511.447 45.4874 510.052 44.9624C508.913 44.5538 507.754 44.2033 506.58 43.9124C492.622 49.0424 481.402 60.5624 475.402 74.2499Z" fill="#F8BFC6" stroke="#EC1B30" stroke-width="1.5" stroke-linecap="round" stroke-linejoin="round"/>
<path d="M493.268 37.2148C491.762 35.9086 490.451 34.3932 489.375 32.7148C488.329 31.0267 487.433 29.2499 486.698 27.4048C486.063 29.2784 485.249 31.0867 484.268 32.8048C480.27 39.5548 473.018 43.5898 466.725 48.2398C463.725 50.4223 460.898 52.8073 457.98 55.0798C458.748 55.291 459.5 55.5567 460.23 55.8748C462.202 56.7707 464.044 57.9287 465.705 59.3173C471.323 56.8048 477.225 54.8173 481.935 50.9248C486.533 47.1598 489.578 41.9023 493.268 37.2148Z" fill="#F8BFC6" stroke="#EC1B30" stroke-width="1.5" stroke-linecap="round" stroke-linejoin="round"/>
<path d="M1024.81 299.017C1020.64 304.305 1017.21 310.267 1012.06 314.512C1006.74 318.907 1000.06 321.15 993.742 323.977C998.974 328.365 1002.78 334.211 1004.68 340.77C1011.43 325.357 1024.1 312.36 1039.84 306.562C1037.67 306.068 1035.55 305.401 1033.48 304.567C1030.32 303.185 1027.39 301.312 1024.81 299.017Z" fill="#E08391" stroke="#EC1B30" stroke-width="1.5" stroke-linecap="round" stroke-linejoin="round"/>
<path d="M1014.66 294.06C1015.76 292.12 1016.68 290.081 1017.4 287.97C1014.91 281.872 1013.56 275.22 1011.13 269.167C1007.45 259.98 1004.13 280.95 1003.48 283.057C1001.87 288.307 999.495 293.422 995.79 297.525C994.958 298.457 994.055 299.325 993.09 300.12C986.13 305.857 976.718 307.14 968.34 309.555C964.418 310.68 964.073 313.065 968.145 315.255C972.998 317.872 979.478 317.617 985.02 319.2C988.313 316.627 991.53 313.95 994.883 311.482C1002 306.232 1010.15 301.687 1014.66 294.06Z" fill="#E08391" stroke="#EC1B30" stroke-width="1.5" stroke-linecap="round" stroke-linejoin="round"/>
<path d="M1004.66 340.77C1005.48 343.491 1006.01 346.296 1006.22 349.133C1006.37 351.435 1005.64 359.543 1008.94 359.303C1012.4 359.055 1012.61 351.645 1013.04 349.268C1013.97 344.108 1015.01 338.948 1017.07 334.103C1019.63 328.103 1023.67 322.53 1029.27 319.178C1033.73 316.5 1038.95 315.315 1044.08 314.775C1046.48 314.52 1052.61 314.738 1049.33 310.5C1048.25 309.09 1045.3 308.34 1043.72 307.747C1042.46 307.275 1041.13 306.915 1039.8 306.562C1024.08 312.36 1011.43 325.357 1004.66 340.77Z" fill="#F8BFC6" stroke="#EC1B30" stroke-width="1.5" stroke-linecap="round" stroke-linejoin="round"/>
<path d="M1024.81 299.017C1023.11 297.552 1021.63 295.852 1020.41 293.97C1019.24 292.062 1018.23 290.054 1017.41 287.97C1016.69 290.081 1015.78 292.12 1014.68 294.06C1010.18 301.687 1002.02 306.232 994.875 311.482C991.523 313.942 988.305 316.627 985.013 319.2C985.882 319.439 986.734 319.737 987.563 320.092C989.791 321.112 991.872 322.426 993.75 324C1000.09 321.172 1006.75 318.93 1012.07 314.535C1017.21 310.237 1020.65 304.305 1024.81 299.017Z" fill="#F8BFC6" stroke="#EC1B30" stroke-width="1.5" stroke-linecap="round" stroke-linejoin="round"/>
</g>
</g>
<defs>
<clipPath id="clip0_973_1599">
<rect width="1440" height="450" fill="white"/>
</clipPath>
</defs>
</svg>
